<svg xmlns="http://www.w3.org/2000/svg" xmlns:xlink="http://www.w3.org/1999/xlink" width="1080" zoomAndPan="magnify" viewBox="0 0 810 809.999993" height="1080" preserveAspectRatio="xMidYMid meet" version="1.0"><defs><clipPath id="d38d1d15d0"><path d="M 133.847656 0.640625 L 312.875 0.640625 L 312.875 286.664062 L 133.847656 286.664062 Z M 133.847656 0.640625 " clip-rule="nonzero"/></clipPath><clipPath id="f8a9960666"><path d="M 223.363281 0.640625 L 312.875 0.640625 L 223.363281 286.152344 L 133.847656 286.152344 Z M 223.363281 0.640625 " clip-rule="nonzero"/></clipPath><clipPath id="5a6bac168b"><path d="M 0.847656 0.640625 L 179.875 0.640625 L 179.875 286 L 0.847656 286 Z M 0.847656 0.640625 " clip-rule="nonzero"/></clipPath><clipPath id="528532cd07"><path d="M 90.363281 0.640625 L 179.875 0.640625 L 90.363281 286.152344 L 0.847656 286.152344 Z M 90.363281 0.640625 " clip-rule="nonzero"/></clipPath><clipPath id="7a179719cd"><rect x="0" width="180" y="0" height="287"/></clipPath><clipPath id="aaeddd5d0c"><path d="M 1 0.640625 L 180.023438 0.640625 L 180.023438 286.664062 L 1 286.664062 Z M 1 0.640625 " clip-rule="nonzero"/></clipPath><clipPath id="511ac73d8b"><path d="M 90.511719 0.640625 L 180.023438 0.640625 L 90.511719 286.152344 L 1 286.152344 Z M 90.511719 0.640625 " clip-rule="nonzero"/></clipPath><clipPath id="cce4c81bdb"><path d="M 0 0.640625 L 179.023438 0.640625 L 179.023438 286 L 0 286 Z M 0 0.640625 " clip-rule="nonzero"/></clipPath><clipPath id="7ddb55ed5b"><path d="M 89.511719 0.640625 L 179.023438 0.640625 L 89.511719 286.152344 L 0 286.152344 Z M 89.511719 0.640625 " clip-rule="nonzero"/></clipPath><clipPath id="2d8b186134"><rect x="0" width="180" y="0" height="287"/></clipPath><clipPath id="42ce474aa5"><path d="M 71 50 L 243 50 L 243 287.71875 L 71 287.71875 Z M 71 50 " clip-rule="nonzero"/></clipPath><clipPath id="d08206f33f"><path d="M 33.554688 165.699219 L 121.804688 50.609375 L 280.503906 172.296875 L 192.253906 287.386719 Z M 33.554688 165.699219 " clip-rule="nonzero"/></clipPath><clipPath id="5a11801b96"><path d="M 71.6875 115.96875 L 121.804688 50.609375 L 242.296875 221.96875 L 192.179688 287.328125 Z M 71.6875 115.96875 " clip-rule="nonzero"/></clipPath><clipPath id="64bc3cbb93"><path d="M 0.558594 0.601562 L 171.441406 0.601562 L 171.441406 237.480469 L 0.558594 237.480469 Z M 0.558594 0.601562 " clip-rule="nonzero"/></clipPath><clipPath id="dd6ae28317"><path d="M -37.445312 115.699219 L 50.804688 0.609375 L 209.503906 122.296875 L 121.253906 237.386719 Z M -37.445312 115.699219 " clip-rule="nonzero"/></clipPath><clipPath id="9d9e432382"><path d="M 0.6875 65.96875 L 50.804688 0.609375 L 171.296875 171.96875 L 121.179688 237.328125 Z M 0.6875 65.96875 " clip-rule="nonzero"/></clipPath><clipPath id="3017169a68"><rect x="0" width="172" y="0" height="238"/></clipPath><clipPath id="9f54d17698"><path d="M 283.746094 0.332031 L 462.769531 0.332031 L 462.769531 286 L 283.746094 286 Z M 283.746094 0.332031 " clip-rule="nonzero"/></clipPath><clipPath id="9dc1803bb7"><path d="M 373.257812 0.332031 L 462.769531 0.332031 L 373.257812 285.847656 L 283.746094 285.847656 Z M 373.257812 0.332031 " clip-rule="nonzero"/></clipPath><clipPath id="21a13d8bc1"><path d="M 0.746094 0.332031 L 179.769531 0.332031 L 179.769531 286 L 0.746094 286 Z M 0.746094 0.332031 " clip-rule="nonzero"/></clipPath><clipPath id="8e2a483912"><path d="M 90.257812 0.332031 L 179.769531 0.332031 L 90.257812 285.847656 L 0.746094 285.847656 Z M 90.257812 0.332031 " clip-rule="nonzero"/></clipPath><clipPath id="07a876066f"><rect x="0" width="180" y="0" height="286"/></clipPath><clipPath id="a90acd61c3"><path d="M 452 5 L 592 5 L 592 146 L 452 146 Z M 452 5 " clip-rule="nonzero"/></clipPath><clipPath id="90a7f01ffc"><path d="M 592 36.902344 L 560.425781 145.21875 L 452.109375 113.648438 L 483.679688 5.332031 Z M 592 36.902344 " clip-rule="nonzero"/></clipPath><clipPath id="0882cfe0e8"><path d="M 0 0.238281 L 113 0.238281 L 113 140.398438 L 0 140.398438 Z M 0 0.238281 " clip-rule="nonzero"/></clipPath><clipPath id="13e8b3a1da"><path d="M 140 31.902344 L 108.425781 140.21875 L 0.109375 108.648438 L 31.679688 0.332031 Z M 140 31.902344 " clip-rule="nonzero"/></clipPath><clipPath id="960cb3e6d2"><path d="M 108.398438 140.320312 L 139.96875 32 L 31.652344 0.429688 L 0.0820312 108.746094 Z M 108.398438 140.320312 " clip-rule="nonzero"/></clipPath><clipPath id="9afb2e2141"><rect x="0" width="140" y="0" height="141"/></clipPath><clipPath id="32b141e74a"><path d="M 336 58 L 502 58 L 502 287.71875 L 336 287.71875 Z M 336 58 " clip-rule="nonzero"/></clipPath><clipPath id="95bb8f3da0"><path d="M 298.714844 165.703125 L 381.199219 58.128906 L 540.03125 179.921875 L 457.550781 287.496094 Z M 298.714844 165.703125 " clip-rule="nonzero"/></clipPath><clipPath id="6cf48bacd2"><path d="M 336.847656 115.972656 L 381.199219 58.128906 L 501.6875 229.488281 L 457.335938 287.332031 Z M 336.847656 115.972656 " clip-rule="nonzero"/></clipPath><clipPath id="4bbba04fd2"><path d="M 0.761719 0.0390625 L 165.878906 0.0390625 L 165.878906 229.480469 L 0.761719 229.480469 Z M 0.761719 0.0390625 " clip-rule="nonzero"/></clipPath><clipPath id="00605189c8"><path d="M -37.285156 107.703125 L 45.199219 0.128906 L 204.03125 121.921875 L 121.550781 229.496094 Z M -37.285156 107.703125 " clip-rule="nonzero"/></clipPath><clipPath id="653626911d"><path d="M 0.847656 57.972656 L 45.199219 0.128906 L 165.6875 171.488281 L 121.335938 229.332031 Z M 0.847656 57.972656 " clip-rule="nonzero"/></clipPath><clipPath id="7d02d3b985"><rect x="0" width="166" y="0" height="230"/></clipPath><clipPath id="a25066701a"><rect x="0" width="593" y="0" height="288"/></clipPath></defs><rect x="-81" width="972" fill="#ffffff" y="-80.999999" height="971.999992" fill-opacity="1"/><g transform="matrix(1, 0, 0, 1, 137, 223)"><g clip-path="url(#a25066701a)"><g clip-path="url(#d38d1d15d0)"><g clip-path="url(#f8a9960666)"><g transform="matrix(1, 0, 0, 1, 133, 0.000000000000028422)"><g clip-path="url(#7a179719cd)"><g clip-path="url(#5a6bac168b)"><g clip-path="url(#528532cd07)"><path fill="#292828" d="M 0.847656 0.640625 L 179.875 0.640625 L 179.875 285.964844 L 0.847656 285.964844 Z M 0.847656 0.640625 " fill-opacity="1" fill-rule="nonzero"/></g></g></g></g></g></g><g clip-path="url(#aaeddd5d0c)"><g clip-path="url(#511ac73d8b)"><g transform="matrix(1, 0, 0, 1, 1, 0.000000000000028422)"><g clip-path="url(#2d8b186134)"><g clip-path="url(#cce4c81bdb)"><g clip-path="url(#7ddb55ed5b)"><path fill="#292828" d="M 0 0.640625 L 179.023438 0.640625 L 179.023438 285.964844 L 0 285.964844 Z M 0 0.640625 " fill-opacity="1" fill-rule="nonzero"/></g></g></g></g></g></g><g clip-path="url(#42ce474aa5)"><g clip-path="url(#d08206f33f)"><g clip-path="url(#5a11801b96)"><g transform="matrix(1, 0, 0, 1, 71, 50)"><g clip-path="url(#3017169a68)"><g clip-path="url(#64bc3cbb93)"><g clip-path="url(#dd6ae28317)"><g clip-path="url(#9d9e432382)"><path fill="#292828" d="M -37.445312 115.699219 L 50.804688 0.609375 L 209.503906 122.296875 L 121.253906 237.386719 Z M -37.445312 115.699219 " fill-opacity="1" fill-rule="nonzero"/></g></g></g></g></g></g></g></g><g clip-path="url(#9f54d17698)"><g clip-path="url(#9dc1803bb7)"><g transform="matrix(1, 0, 0, 1, 283, 0.000000000000028422)"><g clip-path="url(#07a876066f)"><g clip-path="url(#21a13d8bc1)"><g clip-path="url(#8e2a483912)"><path fill="#292828" d="M 0.746094 0.332031 L 179.769531 0.332031 L 179.769531 285.65625 L 0.746094 285.65625 Z M 0.746094 0.332031 " fill-opacity="1" fill-rule="nonzero"/></g></g></g></g></g></g><g clip-path="url(#a90acd61c3)"><g clip-path="url(#90a7f01ffc)"><g transform="matrix(1, 0, 0, 1, 452, 5)"><g clip-path="url(#9afb2e2141)"><g clip-path="url(#0882cfe0e8)"><g clip-path="url(#13e8b3a1da)"><g clip-path="url(#960cb3e6d2)"><path fill="#ff4d2d" d="M 108.398438 140.320312 C 125.851562 80.441406 91.457031 17.753906 31.582031 0.300781 L -0.0195312 108.71875 Z M 108.398438 140.320312 " fill-opacity="1" fill-rule="nonzero"/></g></g></g></g></g></g></g><g clip-path="url(#32b141e74a)"><g clip-path="url(#95bb8f3da0)"><g clip-path="url(#6cf48bacd2)"><g transform="matrix(1, 0, 0, 1, 336, 58)"><g clip-path="url(#7d02d3b985)"><g clip-path="url(#4bbba04fd2)"><g clip-path="url(#00605189c8)"><g clip-path="url(#653626911d)"><path fill="#292828" d="M -37.285156 107.703125 L 45.199219 0.128906 L 203.613281 121.601562 L 121.128906 229.171875 Z M -37.285156 107.703125 " fill-opacity="1" fill-rule="nonzero"/></g></g></g></g></g></g></g></g></g></g></svg>
