<svg xmlns="http://www.w3.org/2000/svg" xmlns:xlink="http://www.w3.org/1999/xlink" width="1080" zoomAndPan="magnify" viewBox="0 0 810 809.999993" height="1080" preserveAspectRatio="xMidYMid meet" version="1.0"><defs><clipPath id="65c6c81ede"><path d="M 133.847656 0.640625 L 312.875 0.640625 L 312.875 286.664062 L 133.847656 286.664062 Z M 133.847656 0.640625 " clip-rule="nonzero"/></clipPath><clipPath id="66b5a59c51"><path d="M 223.363281 0.640625 L 312.875 0.640625 L 223.363281 286.152344 L 133.847656 286.152344 Z M 223.363281 0.640625 " clip-rule="nonzero"/></clipPath><clipPath id="47df91e323"><path d="M 0.847656 0.640625 L 179.875 0.640625 L 179.875 286 L 0.847656 286 Z M 0.847656 0.640625 " clip-rule="nonzero"/></clipPath><clipPath id="4d05b2deb6"><path d="M 90.363281 0.640625 L 179.875 0.640625 L 90.363281 286.152344 L 0.847656 286.152344 Z M 90.363281 0.640625 " clip-rule="nonzero"/></clipPath><clipPath id="8f64b345bf"><rect x="0" width="180" y="0" height="287"/></clipPath><clipPath id="cf43d34dbc"><path d="M 1 0.640625 L 180.023438 0.640625 L 180.023438 286.664062 L 1 286.664062 Z M 1 0.640625 " clip-rule="nonzero"/></clipPath><clipPath id="d45cba0f35"><path d="M 90.511719 0.640625 L 180.023438 0.640625 L 90.511719 286.152344 L 1 286.152344 Z M 90.511719 0.640625 " clip-rule="nonzero"/></clipPath><clipPath id="ffc1e4f73f"><path d="M 0 0.640625 L 179.023438 0.640625 L 179.023438 286 L 0 286 Z M 0 0.640625 " clip-rule="nonzero"/></clipPath><clipPath id="a5a656f754"><path d="M 89.511719 0.640625 L 179.023438 0.640625 L 89.511719 286.152344 L 0 286.152344 Z M 89.511719 0.640625 " clip-rule="nonzero"/></clipPath><clipPath id="7be42fe6f7"><rect x="0" width="180" y="0" height="287"/></clipPath><clipPath id="857820c2a5"><path d="M 71 50 L 243 50 L 243 287.71875 L 71 287.71875 Z M 71 50 " clip-rule="nonzero"/></clipPath><clipPath id="4fd701c15b"><path d="M 33.554688 165.699219 L 121.804688 50.609375 L 280.503906 172.296875 L 192.253906 287.386719 Z M 33.554688 165.699219 " clip-rule="nonzero"/></clipPath><clipPath id="f8033ad1a7"><path d="M 71.6875 115.96875 L 121.804688 50.609375 L 242.296875 221.96875 L 192.179688 287.328125 Z M 71.6875 115.96875 " clip-rule="nonzero"/></clipPath><clipPath id="516cc56655"><path d="M 0.558594 0.601562 L 171.441406 0.601562 L 171.441406 237.480469 L 0.558594 237.480469 Z M 0.558594 0.601562 " clip-rule="nonzero"/></clipPath><clipPath id="f3a9797196"><path d="M -37.445312 115.699219 L 50.804688 0.609375 L 209.503906 122.296875 L 121.253906 237.386719 Z M -37.445312 115.699219 " clip-rule="nonzero"/></clipPath><clipPath id="a0f1a8bf42"><path d="M 0.6875 65.96875 L 50.804688 0.609375 L 171.296875 171.96875 L 121.179688 237.328125 Z M 0.6875 65.96875 " clip-rule="nonzero"/></clipPath><clipPath id="fad820db37"><rect x="0" width="172" y="0" height="238"/></clipPath><clipPath id="cd4d1ca17a"><path d="M 283.746094 0.332031 L 462.769531 0.332031 L 462.769531 286 L 283.746094 286 Z M 283.746094 0.332031 " clip-rule="nonzero"/></clipPath><clipPath id="7b00e152c3"><path d="M 373.257812 0.332031 L 462.769531 0.332031 L 373.257812 285.847656 L 283.746094 285.847656 Z M 373.257812 0.332031 " clip-rule="nonzero"/></clipPath><clipPath id="e56ed2d11c"><path d="M 0.746094 0.332031 L 179.769531 0.332031 L 179.769531 286 L 0.746094 286 Z M 0.746094 0.332031 " clip-rule="nonzero"/></clipPath><clipPath id="841ad0f4e4"><path d="M 90.257812 0.332031 L 179.769531 0.332031 L 90.257812 285.847656 L 0.746094 285.847656 Z M 90.257812 0.332031 " clip-rule="nonzero"/></clipPath><clipPath id="0cecf00e21"><rect x="0" width="180" y="0" height="286"/></clipPath><clipPath id="1304a9d8c8"><path d="M 452 5 L 592 5 L 592 146 L 452 146 Z M 452 5 " clip-rule="nonzero"/></clipPath><clipPath id="51bbefdba8"><path d="M 592 36.902344 L 560.425781 145.21875 L 452.109375 113.648438 L 483.679688 5.332031 Z M 592 36.902344 " clip-rule="nonzero"/></clipPath><clipPath id="1a0255b2fe"><path d="M 0 0.238281 L 113 0.238281 L 113 140.398438 L 0 140.398438 Z M 0 0.238281 " clip-rule="nonzero"/></clipPath><clipPath id="ab58e8821c"><path d="M 140 31.902344 L 108.425781 140.21875 L 0.109375 108.648438 L 31.679688 0.332031 Z M 140 31.902344 " clip-rule="nonzero"/></clipPath><clipPath id="85e5ce8f5f"><path d="M 108.398438 140.320312 L 139.96875 32 L 31.652344 0.429688 L 0.0820312 108.746094 Z M 108.398438 140.320312 " clip-rule="nonzero"/></clipPath><clipPath id="41c189cb3e"><rect x="0" width="140" y="0" height="141"/></clipPath><clipPath id="a8c5d4f652"><path d="M 336 58 L 502 58 L 502 287.71875 L 336 287.71875 Z M 336 58 " clip-rule="nonzero"/></clipPath><clipPath id="20b1b3245d"><path d="M 298.714844 165.703125 L 381.199219 58.128906 L 540.03125 179.921875 L 457.550781 287.496094 Z M 298.714844 165.703125 " clip-rule="nonzero"/></clipPath><clipPath id="3c21ab5a5f"><path d="M 336.847656 115.972656 L 381.199219 58.128906 L 501.6875 229.488281 L 457.335938 287.332031 Z M 336.847656 115.972656 " clip-rule="nonzero"/></clipPath><clipPath id="2f03855faf"><path d="M 0.761719 0.0390625 L 165.878906 0.0390625 L 165.878906 229.480469 L 0.761719 229.480469 Z M 0.761719 0.0390625 " clip-rule="nonzero"/></clipPath><clipPath id="198959188a"><path d="M -37.285156 107.703125 L 45.199219 0.128906 L 204.03125 121.921875 L 121.550781 229.496094 Z M -37.285156 107.703125 " clip-rule="nonzero"/></clipPath><clipPath id="28667d1aa3"><path d="M 0.847656 57.972656 L 45.199219 0.128906 L 165.6875 171.488281 L 121.335938 229.332031 Z M 0.847656 57.972656 " clip-rule="nonzero"/></clipPath><clipPath id="afe6eca252"><rect x="0" width="166" y="0" height="230"/></clipPath><clipPath id="67b2014921"><rect x="0" width="593" y="0" height="288"/></clipPath></defs><g transform="matrix(1, 0, 0, 1, 137, 223)"><g clip-path="url(#67b2014921)"><g clip-path="url(#65c6c81ede)"><g clip-path="url(#66b5a59c51)"><g transform="matrix(1, 0, 0, 1, 133, 0.000000000000028422)"><g clip-path="url(#8f64b345bf)"><g clip-path="url(#47df91e323)"><g clip-path="url(#4d05b2deb6)"><path fill="#292828" d="M 0.847656 0.640625 L 179.875 0.640625 L 179.875 285.964844 L 0.847656 285.964844 Z M 0.847656 0.640625 " fill-opacity="1" fill-rule="nonzero"/></g></g></g></g></g></g><g clip-path="url(#cf43d34dbc)"><g clip-path="url(#d45cba0f35)"><g transform="matrix(1, 0, 0, 1, 1, 0.000000000000028422)"><g clip-path="url(#7be42fe6f7)"><g clip-path="url(#ffc1e4f73f)"><g clip-path="url(#a5a656f754)"><path fill="#292828" d="M 0 0.640625 L 179.023438 0.640625 L 179.023438 285.964844 L 0 285.964844 Z M 0 0.640625 " fill-opacity="1" fill-rule="nonzero"/></g></g></g></g></g></g><g clip-path="url(#857820c2a5)"><g clip-path="url(#4fd701c15b)"><g clip-path="url(#f8033ad1a7)"><g transform="matrix(1, 0, 0, 1, 71, 50)"><g clip-path="url(#fad820db37)"><g clip-path="url(#516cc56655)"><g clip-path="url(#f3a9797196)"><g clip-path="url(#a0f1a8bf42)"><path fill="#292828" d="M -37.445312 115.699219 L 50.804688 0.609375 L 209.503906 122.296875 L 121.253906 237.386719 Z M -37.445312 115.699219 " fill-opacity="1" fill-rule="nonzero"/></g></g></g></g></g></g></g></g><g clip-path="url(#cd4d1ca17a)"><g clip-path="url(#7b00e152c3)"><g transform="matrix(1, 0, 0, 1, 283, 0.000000000000028422)"><g clip-path="url(#0cecf00e21)"><g clip-path="url(#e56ed2d11c)"><g clip-path="url(#841ad0f4e4)"><path fill="#292828" d="M 0.746094 0.332031 L 179.769531 0.332031 L 179.769531 285.65625 L 0.746094 285.65625 Z M 0.746094 0.332031 " fill-opacity="1" fill-rule="nonzero"/></g></g></g></g></g></g><g clip-path="url(#1304a9d8c8)"><g clip-path="url(#51bbefdba8)"><g transform="matrix(1, 0, 0, 1, 452, 5)"><g clip-path="url(#41c189cb3e)"><g clip-path="url(#1a0255b2fe)"><g clip-path="url(#ab58e8821c)"><g clip-path="url(#85e5ce8f5f)"><path fill="#ff4d2d" d="M 108.398438 140.320312 C 125.851562 80.441406 91.457031 17.753906 31.582031 0.300781 L -0.0195312 108.71875 Z M 108.398438 140.320312 " fill-opacity="1" fill-rule="nonzero"/></g></g></g></g></g></g></g><g clip-path="url(#a8c5d4f652)"><g clip-path="url(#20b1b3245d)"><g clip-path="url(#3c21ab5a5f)"><g transform="matrix(1, 0, 0, 1, 336, 58)"><g clip-path="url(#afe6eca252)"><g clip-path="url(#2f03855faf)"><g clip-path="url(#198959188a)"><g clip-path="url(#28667d1aa3)"><path fill="#292828" d="M -37.285156 107.703125 L 45.199219 0.128906 L 203.613281 121.601562 L 121.128906 229.171875 Z M -37.285156 107.703125 " fill-opacity="1" fill-rule="nonzero"/></g></g></g></g></g></g></g></g></g></g></svg>