<svg xmlns="http://www.w3.org/2000/svg" xmlns:xlink="http://www.w3.org/1999/xlink" width="100%" zoomAndPan="magnify" viewBox="150 170 490 230" height="100%" preserveAspectRatio="xMidYMid meet" version="1.0"><defs><g/><clipPath id="4fd62dd9c4"><rect x="0" width="474" y="0" height="101"/></clipPath><clipPath id="fbd9ac3648"><path d="M 294.714844 182.679688 L 416.101562 182.679688 L 416.101562 376.617188 L 294.714844 376.617188 Z M 294.714844 182.679688 " clip-rule="nonzero"/></clipPath><clipPath id="8fe6062d0a"><path d="M 355.410156 182.679688 L 416.101562 182.679688 L 355.410156 376.273438 L 294.714844 376.273438 Z M 355.410156 182.679688 " clip-rule="nonzero"/></clipPath><clipPath id="c58f42b505"><path d="M 0.714844 0.679688 L 122.101562 0.679688 L 122.101562 194.320312 L 0.714844 194.320312 Z M 0.714844 0.679688 " clip-rule="nonzero"/></clipPath><clipPath id="4f44b9e289"><path d="M 61.410156 0.679688 L 122.101562 0.679688 L 61.410156 194.273438 L 0.714844 194.273438 Z M 61.410156 0.679688 " clip-rule="nonzero"/></clipPath><clipPath id="17ca3acc0d"><rect x="0" width="123" y="0" height="195"/></clipPath><clipPath id="0edb02c59d"><path d="M 204.636719 182.679688 L 326.023438 182.679688 L 326.023438 376.617188 L 204.636719 376.617188 Z M 204.636719 182.679688 " clip-rule="nonzero"/></clipPath><clipPath id="a525170f93"><path d="M 265.332031 182.679688 L 326.023438 182.679688 L 265.332031 376.273438 L 204.636719 376.273438 Z M 265.332031 182.679688 " clip-rule="nonzero"/></clipPath><clipPath id="c6af5a91cf"><path d="M 0.636719 0.679688 L 122.023438 0.679688 L 122.023438 194.320312 L 0.636719 194.320312 Z M 0.636719 0.679688 " clip-rule="nonzero"/></clipPath><clipPath id="a90d9ce891"><path d="M 61.332031 0.679688 L 122.023438 0.679688 L 61.332031 194.273438 L 0.636719 194.273438 Z M 61.332031 0.679688 " clip-rule="nonzero"/></clipPath><clipPath id="7c6309762a"><rect x="0" width="123" y="0" height="195"/></clipPath><clipPath id="443a779556"><path d="M 252 216 L 369 216 L 369 378 L 252 378 Z M 252 216 " clip-rule="nonzero"/></clipPath><clipPath id="04ca2de5f5"><path d="M 226.710938 294.597656 L 286.550781 216.5625 L 394.15625 299.070312 L 334.316406 377.109375 Z M 226.710938 294.597656 " clip-rule="nonzero"/></clipPath><clipPath id="794318b575"><path d="M 252.566406 260.878906 L 286.550781 216.5625 L 368.246094 332.75 L 334.265625 377.066406 Z M 252.566406 260.878906 " clip-rule="nonzero"/></clipPath><clipPath id="25fec31108"><path d="M 0.480469 0.480469 L 116.398438 0.480469 L 116.398438 161.28125 L 0.480469 161.28125 Z M 0.480469 0.480469 " clip-rule="nonzero"/></clipPath><clipPath id="642d6dc8ce"><path d="M -25.289062 78.597656 L 34.550781 0.5625 L 142.15625 83.070312 L 82.316406 161.109375 Z M -25.289062 78.597656 " clip-rule="nonzero"/></clipPath><clipPath id="72aecdeda6"><path d="M 0.566406 44.878906 L 34.550781 0.5625 L 116.246094 116.75 L 82.265625 161.066406 Z M 0.566406 44.878906 " clip-rule="nonzero"/></clipPath><clipPath id="0d43857484"><rect x="0" width="117" y="0" height="162"/></clipPath><clipPath id="f82cf99945"><path d="M 396.351562 182.472656 L 517.738281 182.472656 L 517.738281 376.40625 L 396.351562 376.40625 Z M 396.351562 182.472656 " clip-rule="nonzero"/></clipPath><clipPath id="6476a7d338"><path d="M 457.046875 182.472656 L 517.738281 182.472656 L 457.046875 376.0625 L 396.351562 376.0625 Z M 457.046875 182.472656 " clip-rule="nonzero"/></clipPath><clipPath id="8414707ae0"><path d="M 0.351562 0.472656 L 121.738281 0.472656 L 121.738281 194 L 0.351562 194 Z M 0.351562 0.472656 " clip-rule="nonzero"/></clipPath><clipPath id="e93d2ba72b"><path d="M 61.046875 0.472656 L 121.738281 0.472656 L 61.046875 194.0625 L 0.351562 194.0625 Z M 61.046875 0.472656 " clip-rule="nonzero"/></clipPath><clipPath id="0db69d1dd8"><rect x="0" width="122" y="0" height="195"/></clipPath><clipPath id="f5b85fb690"><path d="M 510 185 L 606 185 L 606 281 L 510 281 Z M 510 185 " clip-rule="nonzero"/></clipPath><clipPath id="fb69749c47"><path d="M 605.359375 207.269531 L 583.953125 280.710938 L 510.511719 259.304688 L 531.917969 185.859375 Z M 605.359375 207.269531 " clip-rule="nonzero"/></clipPath><clipPath id="e3c7c8b2c6"><path d="M 0.480469 0.761719 L 78 0.761719 L 78 95.800781 L 0.480469 95.800781 Z M 0.480469 0.761719 " clip-rule="nonzero"/></clipPath><clipPath id="d3a27316d1"><path d="M 95.359375 22.269531 L 73.953125 95.710938 L 0.511719 74.304688 L 21.917969 0.859375 Z M 95.359375 22.269531 " clip-rule="nonzero"/></clipPath><clipPath id="297f14df57"><path d="M 73.933594 95.777344 L 95.339844 22.335938 L 21.898438 0.929688 L 0.492188 74.371094 Z M 73.933594 95.777344 " clip-rule="nonzero"/></clipPath><clipPath id="bef576bc02"><rect x="0" width="96" y="0" height="96"/></clipPath><clipPath id="79010ba811"><path d="M 432 221 L 545 221 L 545 378 L 432 378 Z M 432 221 " clip-rule="nonzero"/></clipPath><clipPath id="f06fe7b926"><path d="M 406.5 294.597656 L 462.429688 221.660156 L 570.125 304.242188 L 514.199219 377.179688 Z M 406.5 294.597656 " clip-rule="nonzero"/></clipPath><clipPath id="0330f473d3"><path d="M 432.355469 260.878906 L 462.429688 221.660156 L 544.125 337.851562 L 514.054688 377.070312 Z M 432.355469 260.878906 " clip-rule="nonzero"/></clipPath><clipPath id="797b46e1ec"><path d="M 0.238281 0.519531 L 112.320312 0.519531 L 112.320312 156 L 0.238281 156 Z M 0.238281 0.519531 " clip-rule="nonzero"/></clipPath><clipPath id="e0808116e6"><path d="M -25.5 73.597656 L 30.429688 0.660156 L 138.125 83.242188 L 82.199219 156.179688 Z M -25.5 73.597656 " clip-rule="nonzero"/></clipPath><clipPath id="7617dc8125"><path d="M 0.355469 39.878906 L 30.429688 0.660156 L 112.125 116.851562 L 82.054688 156.070312 Z M 0.355469 39.878906 " clip-rule="nonzero"/></clipPath><clipPath id="3254cd78d3"><rect x="0" width="113" y="0" height="157"/></clipPath></defs><g transform="matrix(1, 0, 0, 1, 159, 378)"><g clip-path="url(#4fd62dd9c4)"><g fill="#292828" fill-opacity="1"><g transform="translate(0.445271, 76.205115)"><g><path d="M 52.71875 0.390625 L 43.125 0.390625 L 43.125 -24.9375 L 14.8125 -24.9375 L 14.8125 0.390625 L 5.21875 0.390625 L 5.21875 -57.625 L 14.8125 -57.625 L 14.8125 -33.421875 L 43.125 -33.421875 L 43.125 -57.625 L 52.71875 -57.625 Z M 52.71875 0.390625 "/></g></g></g><g fill="#292828" fill-opacity="1"><g transform="translate(57.352786, 76.205115)"><g><path d="M 19.046875 -6.484375 C 21.929688 -6.484375 24.347656 -7.351562 26.296875 -9.09375 C 28.242188 -10.832031 29.21875 -13.015625 29.21875 -15.640625 L 29.21875 -18.5 L 19.484375 -17.90625 C 16.992188 -17.726562 15.109375 -17.140625 13.828125 -16.140625 C 12.546875 -15.148438 11.90625 -13.800781 11.90625 -12.09375 C 11.90625 -10.363281 12.546875 -8.992188 13.828125 -7.984375 C 15.109375 -6.984375 16.847656 -6.484375 19.046875 -6.484375 Z M 16.6875 1.09375 C 12.582031 1.09375 9.195312 -0.109375 6.53125 -2.515625 C 3.875 -4.921875 2.546875 -8.035156 2.546875 -11.859375 C 2.546875 -15.609375 3.914062 -18.585938 6.65625 -20.796875 C 9.394531 -23.015625 13.265625 -24.28125 18.265625 -24.59375 L 29.21875 -25.265625 L 29.21875 -28.09375 C 29.21875 -30.34375 28.53125 -32.078125 27.15625 -33.296875 C 25.78125 -34.515625 23.835938 -35.125 21.328125 -35.125 C 18.941406 -35.125 17.039062 -34.59375 15.625 -33.53125 C 14.21875 -32.46875 13.316406 -30.96875 12.921875 -29.03125 L 4.15625 -29.03125 C 4.34375 -31.75 5.160156 -34.144531 6.609375 -36.21875 C 8.066406 -38.289062 10.070312 -39.921875 12.625 -41.109375 C 15.175781 -42.296875 18.179688 -42.890625 21.640625 -42.890625 C 26.722656 -42.890625 30.796875 -41.609375 33.859375 -39.046875 C 36.921875 -36.484375 38.453125 -33.050781 38.453125 -28.75 L 38.453125 0.390625 L 29.546875 0.390625 L 29.546875 -6.484375 L 29.96875 -6.484375 C 28.738281 -4.179688 26.90625 -2.34375 24.46875 -0.96875 C 22.03125 0.40625 19.4375 1.09375 16.6875 1.09375 Z M 16.6875 1.09375 "/></g></g></g><g fill="#292828" fill-opacity="1"><g transform="translate(98.825745, 76.205115)"><g><path d="M 3.5 -29.9375 C 3.5 -33.757812 5.035156 -36.875 8.109375 -39.28125 C 11.191406 -41.6875 15.179688 -42.890625 20.078125 -42.890625 C 24.734375 -42.890625 28.5625 -41.671875 31.5625 -39.234375 C 34.5625 -36.804688 36.164062 -33.5625 36.375 -29.5 L 27.65625 -29.5 C 27.445312 -31.488281 26.664062 -33 25.3125 -34.03125 C 23.96875 -35.070312 22.144531 -35.59375 19.84375 -35.59375 C 17.613281 -35.59375 15.84375 -35.117188 14.53125 -34.171875 C 13.21875 -33.234375 12.5625 -31.988281 12.5625 -30.4375 C 12.5625 -28.03125 14.566406 -26.359375 18.578125 -25.421875 L 25.53125 -23.796875 C 29.71875 -22.804688 32.726562 -21.394531 34.5625 -19.5625 C 36.394531 -17.726562 37.3125 -15.226562 37.3125 -12.0625 C 37.3125 -8.15625 35.664062 -4.972656 32.375 -2.515625 C 29.09375 -0.0546875 24.890625 1.171875 19.765625 1.171875 C 14.804688 1.171875 10.773438 -0.0390625 7.671875 -2.46875 C 4.578125 -4.90625 2.816406 -8.207031 2.390625 -12.375 L 11.546875 -12.375 C 12.222656 -8.238281 15.09375 -6.171875 20.15625 -6.171875 C 22.644531 -6.171875 24.570312 -6.628906 25.9375 -7.546875 C 27.3125 -8.460938 28 -9.707031 28 -11.28125 C 28 -12.53125 27.585938 -13.519531 26.765625 -14.25 C 25.941406 -14.988281 24.484375 -15.617188 22.390625 -16.140625 L 15.046875 -17.953125 C 7.347656 -19.941406 3.5 -23.9375 3.5 -29.9375 Z M 3.5 -29.9375 "/></g></g></g><g fill="#292828" fill-opacity="1"><g transform="translate(137.549555, 76.205115)"><g><path d="M 13.78125 -24.125 L 13.78125 0.390625 L 4.515625 0.390625 L 4.515625 -57.625 L 13.703125 -57.625 L 13.703125 -35.15625 L 13.28125 -35.15625 C 14.40625 -37.5625 16.101562 -39.445312 18.375 -40.8125 C 20.65625 -42.175781 23.394531 -42.859375 26.59375 -42.859375 C 31.226562 -42.859375 34.867188 -41.394531 37.515625 -38.46875 C 40.160156 -35.550781 41.484375 -31.695312 41.484375 -26.90625 L 41.484375 0.390625 L 32.171875 0.390625 L 32.171875 -25.21875 C 32.171875 -28.226562 31.445312 -30.554688 30 -32.203125 C 28.5625 -33.859375 26.40625 -34.6875 23.53125 -34.6875 C 20.46875 -34.6875 18.078125 -33.726562 16.359375 -31.8125 C 14.640625 -29.90625 13.78125 -27.34375 13.78125 -24.125 Z M 13.78125 -24.125 "/></g></g></g><g fill="#292828" fill-opacity="1"><g transform="translate(182.007311, 76.205115)"><g/></g></g><g fill="#292828" fill-opacity="1"><g transform="translate(190.843831, 76.205115)"><g><path d="M 26.515625 -49.421875 L 14.8125 -49.421875 L 14.8125 -29.578125 L 26.75 -29.578125 C 30.070312 -29.578125 32.617188 -30.429688 34.390625 -32.140625 C 36.160156 -33.859375 37.046875 -36.316406 37.046875 -39.515625 C 37.046875 -42.628906 36.117188 -45.054688 34.265625 -46.796875 C 32.421875 -48.546875 29.835938 -49.421875 26.515625 -49.421875 Z M 26.515625 -21.640625 L 14.8125 -21.640625 L 14.8125 0.390625 L 5.21875 0.390625 L 5.21875 -57.625 L 27.578125 -57.625 C 33.492188 -57.625 38.191406 -56 41.671875 -52.75 C 45.160156 -49.507812 46.90625 -45.175781 46.90625 -39.75 C 46.90625 -35.820312 45.9375 -32.367188 44 -29.390625 C 42.0625 -26.421875 39.414062 -24.347656 36.0625 -23.171875 L 48.859375 0.390625 L 37.828125 0.390625 L 26.15625 -21.84375 Z M 26.515625 -21.640625 "/></g></g></g><g fill="#292828" fill-opacity="1"><g transform="translate(240.289353, 76.205115)"><g><path d="M 21.875 -35.203125 C 19 -35.203125 16.65625 -34.257812 14.84375 -32.375 C 13.039062 -30.488281 12.019531 -28.0625 11.78125 -25.09375 L 31.625 -25.09375 C 31.488281 -28.082031 30.550781 -30.515625 28.8125 -32.390625 C 27.070312 -34.265625 24.757812 -35.203125 21.875 -35.203125 Z M 22.421875 -6.5625 C 27.140625 -6.5625 30.234375 -8.59375 31.703125 -12.65625 L 40.5 -12.65625 C 39.769531 -8.488281 37.738281 -5.140625 34.40625 -2.609375 C 31.082031 -0.0859375 27.023438 1.171875 22.234375 1.171875 C 16.078125 1.171875 11.222656 -0.800781 7.671875 -4.75 C 4.128906 -8.707031 2.359375 -14.007812 2.359375 -20.65625 C 2.359375 -25.082031 3.160156 -28.960938 4.765625 -32.296875 C 6.378906 -35.640625 8.644531 -38.238281 11.5625 -40.09375 C 14.488281 -41.957031 17.925781 -42.890625 21.875 -42.890625 C 25.75 -42.890625 29.113281 -42.007812 31.96875 -40.25 C 34.820312 -38.5 37.019531 -36.035156 38.5625 -32.859375 C 40.113281 -29.679688 40.890625 -25.957031 40.890625 -21.6875 L 40.890625 -18.34375 L 11.703125 -18.34375 L 11.703125 -18.21875 C 11.703125 -14.664062 12.664062 -11.832031 14.59375 -9.71875 C 16.519531 -7.613281 19.128906 -6.5625 22.421875 -6.5625 Z M 22.421875 -6.5625 "/></g></g></g><g fill="#292828" fill-opacity="1"><g transform="translate(282.547766, 76.205115)"><g><path d="M 3.5 -29.9375 C 3.5 -33.757812 5.035156 -36.875 8.109375 -39.28125 C 11.191406 -41.6875 15.179688 -42.890625 20.078125 -42.890625 C 24.734375 -42.890625 28.5625 -41.671875 31.5625 -39.234375 C 34.5625 -36.804688 36.164062 -33.5625 36.375 -29.5 L 27.65625 -29.5 C 27.445312 -31.488281 26.664062 -33 25.3125 -34.03125 C 23.96875 -35.070312 22.144531 -35.59375 19.84375 -35.59375 C 17.613281 -35.59375 15.84375 -35.117188 14.53125 -34.171875 C 13.21875 -33.234375 12.5625 -31.988281 12.5625 -30.4375 C 12.5625 -28.03125 14.566406 -26.359375 18.578125 -25.421875 L 25.53125 -23.796875 C 29.71875 -22.804688 32.726562 -21.394531 34.5625 -19.5625 C 36.394531 -17.726562 37.3125 -15.226562 37.3125 -12.0625 C 37.3125 -8.15625 35.664062 -4.972656 32.375 -2.515625 C 29.09375 -0.0546875 24.890625 1.171875 19.765625 1.171875 C 14.804688 1.171875 10.773438 -0.0390625 7.671875 -2.46875 C 4.578125 -4.90625 2.816406 -8.207031 2.390625 -12.375 L 11.546875 -12.375 C 12.222656 -8.238281 15.09375 -6.171875 20.15625 -6.171875 C 22.644531 -6.171875 24.570312 -6.628906 25.9375 -7.546875 C 27.3125 -8.460938 28 -9.707031 28 -11.28125 C 28 -12.53125 27.585938 -13.519531 26.765625 -14.25 C 25.941406 -14.988281 24.484375 -15.617188 22.390625 -16.140625 L 15.046875 -17.953125 C 7.347656 -19.941406 3.5 -23.9375 3.5 -29.9375 Z M 3.5 -29.9375 "/></g></g></g><g fill="#292828" fill-opacity="1"><g transform="translate(321.271584, 76.205115)"><g><path d="M 31.15625 -17.4375 L 31.15625 -42.15625 L 40.421875 -42.15625 L 40.421875 0.390625 L 31.5 0.390625 L 31.5 -6.671875 L 31.9375 -6.671875 C 30.832031 -4.210938 29.1875 -2.296875 27 -0.921875 C 24.8125 0.453125 22.109375 1.140625 18.890625 1.140625 C 14.304688 1.140625 10.675781 -0.285156 8 -3.140625 C 5.332031 -5.992188 4 -9.859375 4 -14.734375 L 4 -42.15625 L 13.28125 -42.15625 L 13.28125 -16.375 C 13.28125 -10.195312 16.09375 -7.082031 21.71875 -7.03125 C 24.707031 -7.03125 27.023438 -7.96875 28.671875 -9.84375 C 30.328125 -11.71875 31.15625 -14.25 31.15625 -17.4375 Z M 31.15625 -17.4375 "/></g></g></g><g fill="#292828" fill-opacity="1"><g transform="translate(364.865309, 76.205115)"><g><path d="M 13.46875 -25.8125 L 13.46875 0.390625 L 4.203125 0.390625 L 4.203125 -42.15625 L 13.078125 -42.15625 L 13.078125 -35.125 L 12.609375 -35.125 C 13.554688 -37.394531 15.082031 -39.25 17.1875 -40.6875 C 19.289062 -42.132812 21.769531 -42.859375 24.625 -42.859375 C 27.5625 -42.859375 30.0625 -42.128906 32.125 -40.671875 C 34.195312 -39.222656 35.640625 -37.226562 36.453125 -34.6875 L 36.09375 -34.6875 C 37.164062 -37.175781 38.875 -39.160156 41.21875 -40.640625 C 43.5625 -42.117188 46.242188 -42.859375 49.265625 -42.859375 C 53.421875 -42.859375 56.773438 -41.550781 59.328125 -38.9375 C 61.890625 -36.332031 63.171875 -32.910156 63.171875 -28.671875 L 63.171875 0.390625 L 53.859375 0.390625 L 53.859375 -26.625 C 53.859375 -29.25 53.210938 -31.253906 51.921875 -32.640625 C 50.640625 -34.023438 48.785156 -34.71875 46.359375 -34.71875 C 43.921875 -34.71875 41.953125 -33.910156 40.453125 -32.296875 C 38.960938 -30.691406 38.21875 -28.617188 38.21875 -26.078125 L 38.21875 0.390625 L 29.109375 0.390625 L 29.109375 -27.265625 C 29.109375 -29.566406 28.445312 -31.382812 27.125 -32.71875 C 25.800781 -34.050781 23.988281 -34.71875 21.6875 -34.71875 C 19.25 -34.71875 17.269531 -33.878906 15.75 -32.203125 C 14.226562 -30.535156 13.46875 -28.40625 13.46875 -25.8125 Z M 13.46875 -25.8125 "/></g></g></g><g fill="#292828" fill-opacity="1"><g transform="translate(431.00213, 76.205115)"><g><path d="M 21.875 -35.203125 C 19 -35.203125 16.65625 -34.257812 14.84375 -32.375 C 13.039062 -30.488281 12.019531 -28.0625 11.78125 -25.09375 L 31.625 -25.09375 C 31.488281 -28.082031 30.550781 -30.515625 28.8125 -32.390625 C 27.070312 -34.265625 24.757812 -35.203125 21.875 -35.203125 Z M 22.421875 -6.5625 C 27.140625 -6.5625 30.234375 -8.59375 31.703125 -12.65625 L 40.5 -12.65625 C 39.769531 -8.488281 37.738281 -5.140625 34.40625 -2.609375 C 31.082031 -0.0859375 27.023438 1.171875 22.234375 1.171875 C 16.078125 1.171875 11.222656 -0.800781 7.671875 -4.75 C 4.128906 -8.707031 2.359375 -14.007812 2.359375 -20.65625 C 2.359375 -25.082031 3.160156 -28.960938 4.765625 -32.296875 C 6.378906 -35.640625 8.644531 -38.238281 11.5625 -40.09375 C 14.488281 -41.957031 17.925781 -42.890625 21.875 -42.890625 C 25.75 -42.890625 29.113281 -42.007812 31.96875 -40.25 C 34.820312 -38.5 37.019531 -36.035156 38.5625 -32.859375 C 40.113281 -29.679688 40.890625 -25.957031 40.890625 -21.6875 L 40.890625 -18.34375 L 11.703125 -18.34375 L 11.703125 -18.21875 C 11.703125 -14.664062 12.664062 -11.832031 14.59375 -9.71875 C 16.519531 -7.613281 19.128906 -6.5625 22.421875 -6.5625 Z M 22.421875 -6.5625 "/></g></g></g></g></g><g clip-path="url(#fbd9ac3648)"><g clip-path="url(#8fe6062d0a)"><g transform="matrix(1, 0, 0, 1, 294, 182)"><g clip-path="url(#17ca3acc0d)"><g clip-path="url(#c58f42b505)"><g clip-path="url(#4f44b9e289)"><path fill="#292828" d="M 0.714844 0.679688 L 122.101562 0.679688 L 122.101562 194.140625 L 0.714844 194.140625 Z M 0.714844 0.679688 " fill-opacity="1" fill-rule="nonzero"/></g></g></g></g></g></g><g clip-path="url(#0edb02c59d)"><g clip-path="url(#a525170f93)"><g transform="matrix(1, 0, 0, 1, 204, 182)"><g clip-path="url(#7c6309762a)"><g clip-path="url(#c6af5a91cf)"><g clip-path="url(#a90d9ce891)"><path fill="#292828" d="M 0.636719 0.679688 L 122.023438 0.679688 L 122.023438 194.140625 L 0.636719 194.140625 Z M 0.636719 0.679688 " fill-opacity="1" fill-rule="nonzero"/></g></g></g></g></g></g><g clip-path="url(#443a779556)"><g clip-path="url(#04ca2de5f5)"><g clip-path="url(#794318b575)"><g transform="matrix(1, 0, 0, 1, 252, 216)"><g clip-path="url(#0d43857484)"><g clip-path="url(#25fec31108)"><g clip-path="url(#642d6dc8ce)"><g clip-path="url(#72aecdeda6)"><path fill="#292828" d="M -25.289062 78.597656 L 34.550781 0.5625 L 142.15625 83.070312 L 82.316406 161.109375 Z M -25.289062 78.597656 " fill-opacity="1" fill-rule="nonzero"/></g></g></g></g></g></g></g></g><g clip-path="url(#f82cf99945)"><g clip-path="url(#6476a7d338)"><g transform="matrix(1, 0, 0, 1, 396, 182)"><g clip-path="url(#0db69d1dd8)"><g clip-path="url(#8414707ae0)"><g clip-path="url(#e93d2ba72b)"><path fill="#292828" d="M 0.351562 0.472656 L 121.738281 0.472656 L 121.738281 193.933594 L 0.351562 193.933594 Z M 0.351562 0.472656 " fill-opacity="1" fill-rule="nonzero"/></g></g></g></g></g></g><g clip-path="url(#f5b85fb690)"><g clip-path="url(#fb69749c47)"><g transform="matrix(1, 0, 0, 1, 510, 185)"><g clip-path="url(#bef576bc02)"><g clip-path="url(#e3c7c8b2c6)"><g clip-path="url(#d3a27316d1)"><g clip-path="url(#297f14df57)"><path fill="#ff4d2d" d="M 73.933594 95.777344 C 85.769531 55.179688 62.449219 12.675781 21.851562 0.839844 L 0.421875 74.351562 Z M 73.933594 95.777344 " fill-opacity="1" fill-rule="nonzero"/></g></g></g></g></g></g></g><g clip-path="url(#79010ba811)"><g clip-path="url(#f06fe7b926)"><g clip-path="url(#0330f473d3)"><g transform="matrix(1, 0, 0, 1, 432, 221)"><g clip-path="url(#3254cd78d3)"><g clip-path="url(#797b46e1ec)"><g clip-path="url(#e0808116e6)"><g clip-path="url(#7617dc8125)"><path fill="#292828" d="M -25.5 73.597656 L 30.429688 0.660156 L 137.839844 83.023438 L 81.914062 155.960938 Z M -25.5 73.597656 " fill-opacity="1" fill-rule="nonzero"/></g></g></g></g></g></g></g></g></svg>